<svg xmlns="http://www.w3.org/2000/svg" version="1.1" xmlns:xlink="http://www.w3.org/1999/xlink" viewBox="0 0 200 200"><rect width="200" height="200" fill="url('#gradient')"></rect><defs><linearGradient id="gradient" gradientTransform="rotate(113 0.5 0.5)"><stop offset="0%" stop-color="#de9d1f"></stop><stop offset="100%" stop-color="#de2e3f"></stop></linearGradient></defs><g><g fill="#21b93e" transform="matrix(2.3855266418835193,0,0,2.3855266418835193,4.3968912093465065,116.965351760609)" stroke="#77ef56" stroke-width="0.55"><path d="M13.12-7.47L13.12-6.82Q13.12-4.74 12.34-3.13Q11.57-1.53 10.15-0.67Q8.73 0.20 6.91 0.20Q5.10 0.20 3.69-0.64Q2.29-1.47 1.50-3.03Q0.71-4.58 0.67-6.59L0.67-6.59L0.67-7.39Q0.67-9.48 1.44-11.08Q2.21-12.68 3.64-13.54Q5.07-14.41 6.89-14.41L6.89-14.41Q8.70-14.41 10.12-13.55Q11.53-12.70 12.32-11.11Q13.11-9.52 13.12-7.47L13.12-7.47ZM9.63-6.76L9.63-7.41Q9.63-9.53 8.92-10.63Q8.21-11.73 6.89-11.73L6.89-11.73Q4.32-11.73 4.17-7.86L4.17-7.86L4.16-6.82Q4.16-4.73 4.85-3.60Q5.55-2.48 6.91-2.48L6.91-2.48Q8.21-2.48 8.92-3.58Q9.62-4.69 9.63-6.76L9.63-6.76ZM26.52-7.60L26.52-1.76Q25.73-0.88 24.21-0.34Q22.69 0.20 20.87 0.20L20.87 0.20Q18.08 0.20 16.41-1.51Q14.74-3.22 14.62-6.27L14.62-6.27L14.61-7.50Q14.61-9.60 15.35-11.17Q16.09-12.73 17.48-13.58Q18.86-14.42 20.67-14.42L20.67-14.42Q23.33-14.42 24.80-13.21Q26.27-11.99 26.51-9.58L26.51-9.58L23.21-9.58Q23.04-10.77 22.45-11.28Q21.87-11.79 20.79-11.79L20.79-11.79Q19.50-11.79 18.80-10.69Q18.10-9.60 18.09-7.57L18.09-7.57L18.09-6.71Q18.09-4.58 18.81-3.51Q19.54-2.44 21.10-2.44L21.10-2.44Q22.44-2.44 23.10-3.04L23.10-3.04L23.10-5.24L20.71-5.24L20.71-7.60L26.52-7.60ZM36.24-14.22L39.67-14.22L39.67-4.91Q39.67-3.33 38.99-2.17Q38.32-1.02 37.06-0.41Q35.80 0.20 34.08 0.20L34.08 0.20Q31.48 0.20 29.99-1.15Q28.50-2.50 28.47-4.84L28.47-4.84L28.47-14.22L31.91-14.22L31.91-4.78Q31.97-2.44 34.08-2.44L34.08-2.44Q35.15-2.44 35.69-3.03Q36.24-3.61 36.24-4.93L36.24-4.93L36.24-14.22ZM52.38-12.46L45.65-2.64L52.45-2.64L52.45 0L41.38 0L41.38-1.81L48.15-11.57L41.34-11.57L41.34-14.22L52.38-14.22L52.38-12.46ZM65.79-7.47L65.79-6.82Q65.79-4.74 65.02-3.13Q64.25-1.53 62.83-0.67Q61.41 0.20 59.59 0.20Q57.77 0.20 56.37-0.64Q54.96-1.47 54.17-3.03Q53.39-4.58 53.35-6.59L53.35-6.59L53.35-7.39Q53.35-9.48 54.12-11.08Q54.88-12.68 56.31-13.54Q57.74-14.41 59.57-14.41L59.57-14.41Q61.38-14.41 62.79-13.55Q64.21-12.70 65.00-11.11Q65.78-9.52 65.79-7.47L65.79-7.47ZM62.30-6.76L62.30-7.41Q62.30-9.53 61.60-10.63Q60.89-11.73 59.57-11.73L59.57-11.73Q56.99-11.73 56.85-7.86L56.85-7.86L56.84-6.82Q56.84-4.73 57.53-3.60Q58.22-2.48 59.59-2.48L59.59-2.48Q60.89-2.48 61.59-3.58Q62.29-4.69 62.30-6.76L62.30-6.76ZM75.42 0L72.39-5.29L70.99-3.75L70.99 0L67.56 0L67.56-14.22L70.99-14.22L70.99-7.95L72.18-9.76L75.24-14.22L79.48-14.22L74.68-7.93L79.48 0L75.42 0Z"></path></g></g></svg>